<svg viewBox="0 -14 512 512" xmlns="http://www.w3.org/2000/svg">
<path fill="#fff" d="m256 384h-206c-16.542969 0-30-13.457031-30-30v-304c0-16.542969 13.457031-30 30-30h358c16.542969 0 30 13.457031 30 30v192.46875c0 5.523438 4.476562 10 10 10s10-4.476562 10-10v-192.46875c0-27.570312-22.429688-50-50-50h-358c-27.570312 0-50 22.429688-50 50v304c0 27.570312 22.429688 50 50 50h206c5.523438 0 10-4.476562 10-10s-4.476562-10-10-10zm0 0"/>
<path fill="#fff" d="m455.070312 287.738281c1.859376-1.859375 2.929688-4.4375 2.929688-7.066406 0-2.644531-1.070312-5.210937-2.929688-7.070313-1.859374-1.863281-4.441406-2.929687-7.070312-2.929687s-5.210938 1.066406-7.070312 2.929687c-1.859376 1.859376-2.929688 4.4375-2.929688 7.070313 0 2.628906 1.070312 5.207031 2.929688 7.066406 1.859374 1.859375 4.441406 2.933594 7.070312 2.933594 2.628906-.003906 5.210938-1.074219 7.070312-2.933594zm0 0"/>
<path fill="#fff" d="m502 384h-35.71875c-4.128906-11.640625-15.246094-20-28.28125-20s-24.152344 8.359375-28.28125 20h-113.140625c-5.523437 0-10 4.476562-10 10s4.476563 10 10 10h113.140625c4.128906 11.640625 15.246094 20 28.28125 20s24.152344-8.359375 28.28125-20h35.71875c5.523438 0 10-4.476562 10-10s-4.476562-10-10-10zm-64 20c-5.515625 0-10-4.484375-10-10s4.484375-10 10-10 10 4.484375 10 10-4.484375 10-10 10zm0 0"/>
<path fill="#fff" d="m502 444.9375h-113.144531c-4.128907-11.636719-15.242188-20-28.28125-20-13.035157 0-24.148438 8.363281-28.277344 20h-35.722656c-5.519531 0-10 4.476562-10 10s4.480469 10 10 10h35.722656c4.128906 11.640625 15.242187 20 28.277344 20 13.039062 0 24.152343-8.359375 28.28125-20h113.144531c5.523438 0 10-4.476562 10-10s-4.476562-10-10-10zm-141.421875 20c-5.515625 0-10-4.484375-10-10 0-5.511719 4.484375-10 10-10 5.511719 0 10 4.488281 10 10 0 5.515625-4.488281 10-10 10zm0 0"/>
<path fill="#fff" d="m360.578125 303.0625c-13.039063 0-24.152344 8.363281-28.28125 20h-35.71875c-5.523437 0-10 4.476562-10 10s4.476563 10 10 10h35.71875c4.128906 11.640625 15.242187 20 28.28125 20 13.035156 0 24.152344-8.359375 28.277344-20h113.144531c5.523438 0 10-4.476562 10-10s-4.476562-10-10-10h-113.144531c-4.125-11.636719-15.242188-20-28.277344-20zm0 40c-5.515625 0-10-4.484375-10-10 0-5.511719 4.484375-10 10-10 5.511719 0 10 4.488281 10 10 0 5.515625-4.488281 10-10 10zm0 0"/>
<path fill="#fff" d="m341.03125 208.46875c0-61.773438-50.257812-112.03125-112.03125-112.03125s-112.03125 50.257812-112.03125 112.03125 50.257812 112.035156 112.03125 112.035156 112.03125-50.261718 112.03125-112.035156zm-112.03125 92.035156c-50.746094 0-92.03125-41.289062-92.03125-92.035156s41.285156-92.03125 92.03125-92.03125 92.03125 41.285156 92.03125 92.03125-41.285156 92.035156-92.03125 92.035156zm0 0"/>
<path fill="#fff" d="m277.191406 188.917969-54.25-34.773438c-6.800781-4.359375-15.429687-4.660156-22.519531-.785156-7.09375 3.878906-11.496094 11.304687-11.496094 19.386719v69.546875c0 8.078125 4.402344 15.507812 11.492188 19.386719 3.3125 1.808593 6.960937 2.707031 10.601562 2.707031 4.152344 0 8.296875-1.167969 11.921875-3.492188l54.253906-34.773437c6.367188-4.082032 10.167969-11.035156 10.167969-18.601563 0-7.566406-3.800781-14.519531-10.171875-18.601562zm-10.789062 20.363281-54.253906 34.773438c-.695313.445312-1.410157.46875-2.132813.074218-.726563-.394531-1.089844-1.011718-1.089844-1.835937v-69.546875c0-.824219.367188-1.441406 1.089844-1.839844.335937-.183594.675781-.277344 1.011719-.277344.378906 0 .753906.117188 1.121094.355469l54.253906 34.773437c.792968.507813.960937 1.238282.960937 1.761719 0 .523438-.167969 1.25-.960937 1.761719zm0 0"/>
<path fill="#fff" d="m48 180.191406v97.5c0 5.523438 4.476562 10 10 10s10-4.476562 10-10v-97.5c0-5.519531-4.476562-10-10-10s-10 4.480469-10 10zm0 0"/>
<path fill="#fff" d="m65.070312 132.179688c-1.859374-1.871094-4.441406-2.929688-7.070312-2.929688s-5.210938 1.058594-7.070312 2.929688c-1.859376 1.847656-2.929688 4.429687-2.929688 7.070312 0 2.628906 1.070312 5.210938 2.929688 7.066406 1.859374 1.863282 4.441406 2.933594 7.070312 2.933594s5.210938-1.070312 7.070312-2.933594c1.859376-1.867187 2.929688-4.4375 2.929688-7.066406 0-2.640625-1.070312-5.210938-2.929688-7.070312zm0 0"/>
</svg>